<svg xmlns="http://www.w3.org/2000/svg" viewBox="0 0 512 512"><path d="M115.2 345.6A51.26 51.26 0 0 0 64 396.8c0 28.23 22.97 51.2 51.2 51.2s51.2-22.97 51.2-51.2a51.26 51.26 0 0 0-51.2-51.2zm0 76.8a25.6 25.6 0 1 1 0-51.2 25.6 25.6 0 0 1 0 51.2z"/><path d="M486.4 0h-51.2c-6.8 0-13.3 2.7-18.1 7.5L209.22 215.38a152.6 152.6 0 0 0-55.62-10.58C68.9 204.8 0 273.7 0 358.4S68.9 512 153.6 512s153.6-68.9 153.6-153.6c0-19.63-3.84-38.35-10.58-55.62l40.41-40.41a25.57 25.57 0 0 0 7.41-20.23l-2.24-26.89 5.33-5.54 13.58 5.82a25.62 25.62 0 0 0 28.19-5.43l15.47-15.47c4.9-4.9 7.6-11.57 7.5-18.5l-.14-8.13h8.67a25.58 25.58 0 0 0 25.59-25.9l-.24-20.5h21.03c6.8 0 13.3-2.7 18.1-7.5l19.2-19.2A25.49 25.49 0 0 0 512 76.8V25.6A25.6 25.6 0 0 0 486.4 0zM153.6 486.4c-70.69 0-128-57.31-128-128s57.31-128 128-128 128 57.31 128 128-57.31 128-128 128zM486.4 76.8L467.2 96h-46.93l.53 46.4h-34.67l.54 34.14L371.2 192l-29.87-12.8-25.6 26.67 3.2 38.4-34.34 34.33a154.59 154.59 0 0 0-51.2-51.2L435.2 25.6h51.2v51.2z"/></svg>
