<svg xmlns="http://www.w3.org/2000/svg" viewBox="0 0 512 512"><path d="M499.2 486.4h-38.4V281.6h25.6a25.61 25.61 0 0 0 18.1-43.7L274.1 7.5c-5-5-11.55-7.5-18.1-7.5s-13.1 2.5-18.1 7.5L166.4 79V51.2a25.6 25.6 0 0 0-25.6-25.6h-25.6a25.6 25.6 0 0 0-25.6 25.6v104.6L7.5 237.9a25.6 25.6 0 0 0 18.1 43.7h25.6v204.8H12.8a12.8 12.8 0 1 0 0 25.6h486.4a12.8 12.8 0 1 0 0-25.6zm-384-435.2h25.6v53.4l-25.6 25.6v-79zm320 435.2H76.8V256H25.6L256 25.6 486.4 256h-51.2v230.4z"/><path d="M144.55 426.14l204.8-204.8 18.1 18.1-204.8 204.8zM192 217.6a51.26 51.26 0 0 0-51.2 51.2A51.26 51.26 0 0 0 192 320a51.26 51.26 0 0 0 51.2-51.2 51.26 51.26 0 0 0-51.2-51.2zm0 76.8a25.63 25.63 0 0 1-25.6-25.6c0-14.11 11.48-25.6 25.6-25.6s25.6 11.49 25.6 25.6a25.63 25.63 0 0 1-25.6 25.6zM320 345.6a51.26 51.26 0 0 0-51.2 51.2A51.26 51.26 0 0 0 320 448a51.26 51.26 0 0 0 51.2-51.2 51.26 51.26 0 0 0-51.2-51.2zm0 76.8a25.63 25.63 0 0 1-25.6-25.6 25.63 25.63 0 0 1 25.6-25.6 25.63 25.63 0 0 1 25.6 25.6 25.63 25.63 0 0 1-25.6 25.6z"/></svg>
