<svg xmlns="http://www.w3.org/2000/svg" viewBox="0 0 90 90"><path d="M65.4 6.2A35.8 35.8 0 0 0 44 0a30 30 0 0 0-16.6 4.3C20.3 9 16.4 16.6 16 27.4h16.5c0-3.1 1-6.2 2.8-9.1 1.8-3 5-4.4 9.4-4.4 4.5 0 7.6 1.2 9.3 3.5 1.6 2.4 2.5 5 2.5 8 0 2.5-1.3 4.8-2.8 6.9-.8 1.2-2 2.3-3.3 3.3 0 0-9 5.8-12.9 10.4-2.3 2.7-2.5 6.7-2.7 12.5 0 .4.2 1.2 1.6 1.2h12.9c1.3 0 1.5-1 1.5-1.4.1-2 .3-3.1.7-4.3.7-2.3 2.7-4.3 5-6l4.5-3.2c4-3.2 7.3-5.8 8.8-7.9A21 21 0 0 0 74 24.4c0-8-2.9-14.1-8.6-18.2zM43.7 69.6a10 10 0 0 0-10.6 10c-.2 6.1 4.3 10.2 10 10.4 6 .2 10.5-3.6 10.7-9.8.2-6.2-4.1-10.4-10-10.6z"/></svg>
