<svg xmlns="http://www.w3.org/2000/svg" viewBox="0 0 490.7 490.7"><g fill="#fff">
  <path d="M437.3 42.7h-128a10.7 10.7 0 0 0 0 21.3h128a10.7 10.7 0 0 0 0-21.3z"/><path d="M444.9 45.8L402.2 3a10.7 10.7 0 0 0-15 15.1l35 35.1-35 35.2a10.7 10.7 0 0 0 15 15L445 61c4.1-4.2 4.1-11 0-15.1zM160 42.7H32A10.7 10.7 0 0 0 32 64h128a10.7 10.7 0 0 0 0-21.3z"/><path d="M47 53.3l35.2-35.1a10.7 10.7 0 0 0-15-15L24.3 45.7c-4.1 4.1-4.1 11 0 15l42.7 42.7a10.7 10.7 0 0 0 15 0c4.3-4.1 4.3-11 0-15l-35-35.2zM426.7 213.3c-8.8 0-17 2.7-23.8 7.2a42.8 42.8 0 0 0-64-21.3 42.8 42.8 0 0 0-61.6-22.8v-69.7a42.7 42.7 0 0 0-85.3 0V288l-37-27.8a56 56 0 0 0-72.8 5.2 32 32 0 0 0 0 45.2l152 152a95.4 95.4 0 0 0 67.8 28h50c64.7 0 117.3-52.6 117.3-117.3V256a42.7 42.7 0 0 0-42.6-42.7zm21.3 160c0 53-43 96-96 96h-50c-20 0-38.7-7.7-52.8-21.9l-152-151.9c-4-4.1-4-11 0-15a34.4 34.4 0 0 1 45-3.2l54 40.5a10.7 10.7 0 0 0 17.1-8.5V106.7a21.4 21.4 0 0 1 42.7 0v160a10.7 10.7 0 0 0 21.3 0v-53.4a21.4 21.4 0 0 1 42.7 0v53.4a10.7 10.7 0 0 0 21.3 0v-32a21.4 21.4 0 0 1 42.7 0v32a10.7 10.7 0 0 0 21.3 0V256a21.4 21.4 0 0 1 42.7 0v117.3z"/>
</g></svg>
