<svg xmlns="http://www.w3.org/2000/svg"><symbol id="3d"><path fill="none" d="M0 0h48v48H0z"/><path d="M15 43A21 21 0 0 1 3.1 26h-3A24 24 0 0 0 24 48h1.3l-7.6-7.7L15 43zm1.8-13a3 3 0 0 1-1-.3c-.4 0-.6-.2-.8-.4a2 2 0 0 1-.6-.8l-.1-.9h-2.6c0 .7.1 1.4.4 2 .3.5.6 1 1.1 1.3l1.6.8a7 7 0 0 0 4 0c.7-.2 1.2-.5 1.7-.9s.8-.9 1.1-1.4a4.7 4.7 0 0 0 .3-3.1l-.5-1-.8-.9-1.2-.6a4.3 4.3 0 0 0 1.8-1.5l.5-1 .1-.9c0-.7-.1-1.3-.4-1.9-.2-.5-.5-1-1-1.4l-1.6-.8a6.8 6.8 0 0 0-4 0c-.6.2-1.2.5-1.6 1-.4.3-.8.7-1 1.3-.3.5-.4 1-.4 1.7h2.6c0-.4 0-.7.2-1l.5-.6.7-.5a3 3 0 0 1 1-.1c.8 0 1.4.2 1.8.6.4.4.6 1 .6 1.7 0 .4 0 .7-.2 1a2 2 0 0 1-.5.7c-.2.3-.5.4-.8.5-.3.2-.7.2-1.2.2H15v2h1.5l1.2.2 1 .5.5.8.2 1.1c0 .8-.2 1.5-.7 1.9-.5.4-1 .6-1.9.6zM34 18a6.5 6.5 0 0 0-2.2-1.5c-1-.3-1.9-.5-3-.5H24v16h4.6c1.1 0 2.1-.2 3-.5a6.5 6.5 0 0 0 3.8-4c.4-.9.5-2 .5-3.1v-.8a9 9 0 0 0-.5-3.1 7 7 0 0 0-1.5-2.4zm-.8 6.4c0 .8 0 1.6-.3 2.3a3.8 3.8 0 0 1-2.3 2.8 5 5 0 0 1-2 .3h-1.7V18.2h2c1.4 0 2.5.5 3.2 1.4.8 1 1.2 2.3 1.2 4v.8zM24 0h-1.3l7.6 7.7L33 5a21 21 0 0 1 11.9 17h3A24 24 0 0 0 24 0z"/></symbol><symbol id="key" viewBox="0 0 512 512"><path d="M115.2 345.6A51.26 51.26 0 0 0 64 396.8c0 28.23 22.97 51.2 51.2 51.2s51.2-22.97 51.2-51.2a51.26 51.26 0 0 0-51.2-51.2zm0 76.8a25.6 25.6 0 1 1 0-51.2 25.6 25.6 0 0 1 0 51.2z"/><path d="M486.4 0h-51.2c-6.8 0-13.3 2.7-18.1 7.5L209.22 215.38a152.6 152.6 0 0 0-55.62-10.58C68.9 204.8 0 273.7 0 358.4S68.9 512 153.6 512s153.6-68.9 153.6-153.6c0-19.63-3.84-38.35-10.58-55.62l40.41-40.41a25.57 25.57 0 0 0 7.41-20.23l-2.24-26.89 5.33-5.54 13.58 5.82a25.62 25.62 0 0 0 28.19-5.43l15.47-15.47c4.9-4.9 7.6-11.57 7.5-18.5l-.14-8.13h8.67a25.58 25.58 0 0 0 25.59-25.9l-.24-20.5h21.03c6.8 0 13.3-2.7 18.1-7.5l19.2-19.2A25.49 25.49 0 0 0 512 76.8V25.6A25.6 25.6 0 0 0 486.4 0zM153.6 486.4c-70.69 0-128-57.31-128-128s57.31-128 128-128 128 57.31 128 128-57.31 128-128 128zM486.4 76.8L467.2 96h-46.93l.53 46.4h-34.67l.54 34.14L371.2 192l-29.87-12.8-25.6 26.67 3.2 38.4-34.34 34.33a154.59 154.59 0 0 0-51.2-51.2L435.2 25.6h51.2v51.2z"/></symbol><symbol id="mortgage" viewBox="0 0 512 512"><path d="M499.2 486.4h-38.4V281.6h25.6a25.61 25.61 0 0 0 18.1-43.7L274.1 7.5c-5-5-11.55-7.5-18.1-7.5s-13.1 2.5-18.1 7.5L166.4 79V51.2a25.6 25.6 0 0 0-25.6-25.6h-25.6a25.6 25.6 0 0 0-25.6 25.6v104.6L7.5 237.9a25.6 25.6 0 0 0 18.1 43.7h25.6v204.8H12.8a12.8 12.8 0 1 0 0 25.6h486.4a12.8 12.8 0 1 0 0-25.6zm-384-435.2h25.6v53.4l-25.6 25.6v-79zm320 435.2H76.8V256H25.6L256 25.6 486.4 256h-51.2v230.4z"/><path d="M144.55 426.14l204.8-204.8 18.1 18.1-204.8 204.8zM192 217.6a51.26 51.26 0 0 0-51.2 51.2A51.26 51.26 0 0 0 192 320a51.26 51.26 0 0 0 51.2-51.2 51.26 51.26 0 0 0-51.2-51.2zm0 76.8a25.63 25.63 0 0 1-25.6-25.6c0-14.11 11.48-25.6 25.6-25.6s25.6 11.49 25.6 25.6a25.63 25.63 0 0 1-25.6 25.6zm128 51.2a51.26 51.26 0 0 0-51.2 51.2A51.26 51.26 0 0 0 320 448a51.26 51.26 0 0 0 51.2-51.2 51.26 51.26 0 0 0-51.2-51.2zm0 76.8a25.63 25.63 0 0 1-25.6-25.6 25.63 25.63 0 0 1 25.6-25.6 25.63 25.63 0 0 1 25.6 25.6 25.63 25.63 0 0 1-25.6 25.6z"/></symbol><symbol id="pdf-2" viewBox="0 0 58 58"><path d="M51 12.2l-.8-.8L40 1.4l-.8-.8C39 .2 38.5 0 38 0H9C7.8 0 6.5 1 6.5 3v53c0 .8.8 1.7 1.8 2h41.4c1-.3 1.8-1.2 1.8-2V14c0-.8 0-1.4-.5-1.8zm-3-.2h-8.5V3.6l8.4 8.4zM9 56h-.2a.5.5 0 0 1-.3-.5V41h41v14.5c0 .2-.1.4-.3.5H9zm-.5-17V3c0-.3 0-1 .5-1h28.6l-.1.4V14h12v25h-41z"/><path d="M22 44.7l-1-.6a4 4 0 0 0-1.4-.2h-2.9V54h1.7v-3.6h1.2l1.5-.3c.5-.2.8-.3 1-.6.4-.3.6-.7.8-1l.3-1.5c0-.4-.1-.9-.3-1.3l-.9-1zm-.6 3.4c0 .3-.2.5-.4.6l-.5.4h-2.1v-4h1.2c.4 0 .8.1 1 .3a1.7 1.7 0 0 1 .9 1V48zM32 45.4c-.5-.4-1-.8-1.6-1s-1.4-.5-2.3-.5h-3V54h3.8a5.4 5.4 0 0 0 1.5-.3c.3 0 .6-.3 1-.5s.6-.5.9-1a6 6 0 0 0 1-3.5 5 5 0 0 0-.4-1.8c-.2-.5-.5-1-1-1.5zm-1.2 6.3c-.5.7-1.3 1.1-2.4 1.1h-1.7v-7.6h1c.8 0 1.4 0 1.9.3s.9.4 1.2.8.4.7.5 1.1l.2 1.2c0 1.4-.3 2.4-.7 3.1zm4.8 2.3h1.7v-4.5h4.2v-1.2h-4.2v-3.1h4.6v-1.3h-6.3zm2.8-31c-.9 0-2 0-3.3.3a32 32 0 0 1-5.1-7.5c1.3-5.7.6-6.5.4-6.8-.4-.4-.8-1-1.3-1a5 5 0 0 0-1 0c-.6.3-1 .7-1.2 1.3-.7 1.6.3 4.5 1.3 6.6-.8 3.4-2.3 7.5-3.8 10.8-3.8 1.7-5.8 3.4-6 5 0 .6.1 1.5 1.1 2.3.3.2.7.3 1 .3.9 0 1.8-.6 2.8-2l2.4-4.3a48 48 0 0 1 8.8-2.9c1.6 1.6 3 2.3 4.2 2.3 1 0 1.7-.4 2.2-1.2.6-.8.7-1.5.4-2.1-.4-.8-1.3-1.1-2.9-1.1zm-17.9 9.6c-.4-.3-.4-.6-.4-.7 0-.5 1-1.5 3-2.7-1.5 3-2.4 3.4-2.6 3.4zm8.2-22.9s1 1.1.1 3.2c-1.4-1.4-.2-3.2 0-3.2zm-2 16c1-2.4 2-5 2.6-7.5 1.2 2 2.5 4 3.9 5.5-2.2.5-4.4 1.2-6.5 2zm12.9-.4c-.3.4-1 .4-1.2.4-.6 0-.8-.3-1.6-1h1.8l1.2.1c0 .1 0 .3-.2.5z"/></symbol><symbol id="pdf" viewBox="0 0 512 512"><path d="M494.5 138.6L364 3c-1.8-2-4.4-3-7-3H162.4A39.5 39.5 0 0 0 123 39.4v137.8H44.3a29.6 29.6 0 0 0-29.5 29.5v147.8A29.5 29.5 0 0 0 44.3 384H123v88.6a39.5 39.5 0 0 0 39.4 39.4h295.3a39.4 39.4 0 0 0 39.4-39.4V145.4c0-2.6-1-5-2.7-6.8zm-135.1-112l107 111.2h-107V26.6zM44.3 364.3a9.8 9.8 0 0 1-9.8-9.8V206.7c0-5.4 4.4-9.8 9.8-9.8h265.9c5.4 0 9.8 4.4 9.8 9.8v147.8c0 5.4-4.4 9.8-9.8 9.8h-266zm433.2 108.3c0 10.9-8.8 19.7-19.7 19.7H162.5a19.7 19.7 0 0 1-19.7-19.7V384h167.4a29.5 29.5 0 0 0 29.5-29.5V206.7a29.6 29.6 0 0 0-29.5-29.5H142.8V39.4c0-10.8 8.8-19.7 19.7-19.7h177.2v128c0 5.4 4.4 9.8 9.8 9.8h128v315.1z"/><path d="M132.5 249.9c-3.3-4.3-7.3-7-12.2-8.3-3.1-.8-10-1.3-20.3-1.3H72.6V325h17v-32h11.2c7.7 0 13.6-.4 17.7-1.2 3-.6 6-2 8.9-4 2.9-2 5.3-4.8 7.2-8.3 1.8-3.6 2.8-8 2.8-13.1 0-6.8-1.7-12.3-5-16.5zm-14.6 23.3c-1.3 1.9-3.1 3.2-5.4 4.1s-6.8 1.4-13.5 1.4h-9.3v-24h8.2a82 82 0 0 1 12.3.5c2.8.5 5 1.8 6.9 3.8a11 11 0 0 1 2.7 7.6c0 2.5-.7 4.7-2 6.6zm101.6-9.7c-1.9-5.5-4.6-10-8.1-13.8s-7.8-6.3-12.7-7.7a61 61 0 0 0-16.1-1.7h-31.3V325h32.2c6.3 0 11.3-.6 15.1-1.8 5-1.6 9-3.8 12-6.7 4-3.8 7-8.8 9-15 1.8-5 2.7-11 2.7-18 0-7.9-1-14.5-2.8-20zm-16.6 34.7a17.9 17.9 0 0 1-4.5 8.1 15.8 15.8 0 0 1-6.9 3.6c-2.1.5-5.6.8-10.3.8h-12.8v-56h7.7c7 0 11.6.2 14 .8 3.2.7 5.8 2 8 4 2 1.9 3.6 4.6 4.8 8.1 1.1 3.5 1.7 8.6 1.7 15 0 6.6-.6 11.8-1.7 15.6zm91.9-43.5v-14.4h-58v84.6h17.1V289h35.3v-14.3h-35.3v-20z"/></symbol><symbol id="play"><path fill="none" d="M0 0h48v48H0z"/><path d="M20 33l12-9-12-9v18zm4-29a20 20 0 1 0 0 40 20 20 0 0 0 0-40zm0 36a16 16 0 1 1 0-32 16 16 0 0 1 0 32z"/></symbol><symbol id="question-mark" viewBox="0 0 90 90"><path d="M65.4 6.2A35.8 35.8 0 0 0 44 0a30 30 0 0 0-16.6 4.3C20.3 9 16.4 16.6 16 27.4h16.5c0-3.1 1-6.2 2.8-9.1 1.8-3 5-4.4 9.4-4.4 4.5 0 7.6 1.2 9.3 3.5 1.6 2.4 2.5 5 2.5 8 0 2.5-1.3 4.8-2.8 6.9-.8 1.2-2 2.3-3.3 3.3 0 0-9 5.8-12.9 10.4-2.3 2.7-2.5 6.7-2.7 12.5 0 .4.2 1.2 1.6 1.2h12.9c1.3 0 1.5-1 1.5-1.4.1-2 .3-3.1.7-4.3.7-2.3 2.7-4.3 5-6l4.5-3.2c4-3.2 7.3-5.8 8.8-7.9A21 21 0 0 0 74 24.4c0-8-2.9-14.1-8.6-18.2zM43.7 69.6a10 10 0 0 0-10.6 10c-.2 6.1 4.3 10.2 10 10.4 6 .2 10.5-3.6 10.7-9.8.2-6.2-4.1-10.4-10-10.6z"/></symbol><symbol id="soc-facebook" viewBox="0 0 50 50"><path d="M30 26l1-5h-5v-4c0-1.5.8-2 3-2h2v-5h-4c-4 0-7 2.4-7 7v4h-5v5h5v14h6V26h4z"/><path d="M25 1C11.7 1 1 11.7 1 25s10.7 24 24 24 24-10.7 24-24S38.3 1 25 1zm0 43C14.5 44 6 35.5 6 25S14.5 6 25 6s19 8.5 19 19-8.5 19-19 19z"/></symbol><symbol id="soc-instagram" viewBox="0 0 50 50"><path d="M34 12.6H15.6c-1.6 0-3 1.3-3 3v19c0 1.5 1.4 2.8 3 2.8h19c1.5 0 3-1.3 3-3v-19c-.2-1.4-2-2.7-3.4-2.8zm-9 8c2.5 0 4.5 2 4.5 4.4 0 2.5-2 4.5-4.5 4.5s-4.5-2-4.5-4.5 2-4.5 4.5-4.5zm9 11.8c0 1-.6 1.6-1.5 1.6H17.6c-1 0-1.6-.7-1.6-1.6V23h2c-.3.6-.4 1.2-.4 2 0 4 3.3 7.4 7.4 7.4s7.4-3.3 7.4-7.4c0-.7 0-1.4-.3-2h2v9.4zm0-15.6v2.5c0 .4-.3.8-.7.8h-2.5c-.4 0-.8-.3-.8-.7v-2.5c0-.5.4-.8.8-.8h2.5c.4 0 .8.3.8.8z"/><path d="M25 1C11.7 1 1 11.7 1 25s10.7 24 24 24 24-10.7 24-24S38.3 1 25 1zm0 43C14.5 44 6 35.5 6 25S14.5 6 25 6s19 8.5 19 19-8.5 19-19 19z"/></symbol><symbol id="soc-vk" viewBox="0 0 50 50"><path d="M26 34c1 0 1-1.4 1-2 0-1 1-2 2-2s2.7 1.7 4 3c1 1 1 1 2 1h3s2 0 2-2c0-.6-.7-1.7-3-4-2-2-3-1 0-5 1.8-2.5 3.2-4.7 3-5.3-.2-.6-5.3-1.6-6-.7-2 3-2.4 3.7-3 5-1 2-1 3-2 3s-1-2-1-3c0-3.3.5-5.6-1-6h-3c-1.6 0-3 1-3 1s-1.2 1-1 1c.3 0 2-.4 2 1v2s0 4-1 4-3-4-5-7c-.8-1.2-1-1-2-1h-3c-1 0-1 .6-1 1 2 5 3.4 8 7.2 12 3.5 3.7 5.8 4 7.8 4h1z"/><path d="M25 1C11.7 1 1 11.7 1 25s10.7 24 24 24 24-10.7 24-24S38.3 1 25 1zm0 43C14.5 44 6 35.5 6 25S14.5 6 25 6s19 8.5 19 19-8.5 19-19 19z"/></symbol><symbol id="speech-bubble" viewBox="0 0 442.833 442.833"><path d="M361 18.2H81.9C36.7 18.2 0 54.9 0 100v170c0 45 36.7 81.8 81.8 81.8h192.8l69.7 69.7a10.9 10.9 0 0 0 18.6-7.8v-62c44.2-1 80-37.2 80-81.7V100c0-45.1-36.7-81.8-81.8-81.8zM421 270a60 60 0 0 1-60 60h-9c-6 0-11 4.8-11 10.9v46.5l-54.2-54.2c-2-2-4.8-3.2-7.7-3.2H81.8c-33 0-60-27-60-60V100a60 60 0 0 1 60-60H361a60 60 0 0 1 60 60v170z"/><path d="M119.2 161.2a24.5 24.5 0 1 0 0 49.1 24.5 24.5 0 0 0 0-49zm102.2 0a24.5 24.5 0 1 0 0 49.1 24.5 24.5 0 0 0 0-49zm102.2 0a24.5 24.5 0 1 0 0 49.1 24.5 24.5 0 0 0 0-49z"/></symbol></svg>