<svg xmlns="http://www.w3.org/2000/svg" viewBox="0 0 58 58"><path d="M51 12.2l-.8-.8L40 1.4l-.8-.8C39 .2 38.5 0 38 0H9C7.8 0 6.5 1 6.5 3v53c0 .8.8 1.7 1.8 2H49.7c1-.3 1.8-1.2 1.8-2V14c0-.8 0-1.4-.5-1.8zm-3-.2h-8.5V3.6l8.4 8.4zM9 56h-.2a.5.5 0 0 1-.3-.5V41h41v14.5c0 .2-.1.4-.3.5H9zm-.5-17V3c0-.3 0-1 .5-1h28.6l-.1.4V14h12v25h-41z"/><path d="M22 44.7l-1-.6a4 4 0 0 0-1.4-.2h-2.9V54h1.7v-3.6h1.2l1.5-.3c.5-.2.8-.3 1-.6.4-.3.6-.7.8-1l.3-1.5c0-.4-.1-.9-.3-1.3l-.9-1zm-.6 3.4c0 .3-.2.5-.4.6l-.5.4h-2.1v-4h1.2c.4 0 .8.1 1 .3a1.7 1.7 0 0 1 .9 1V48zM32 45.4c-.5-.4-1-.8-1.6-1s-1.4-.5-2.3-.5h-3V54h3.8a5.4 5.4 0 0 0 1.5-.3c.3 0 .6-.3 1-.5s.6-.5.9-1a6 6 0 0 0 1-3.5 5 5 0 0 0-.4-1.8c-.2-.5-.5-1-1-1.5zm-1.2 6.3c-.5.7-1.3 1.1-2.4 1.1h-1.7v-7.6h1c.8 0 1.4 0 1.9.3s.9.4 1.2.8.4.7.5 1.1l.2 1.2c0 1.4-.3 2.4-.7 3.1zM35.6 54h1.7v-4.5h4.2v-1.2h-4.2v-3.1h4.6v-1.3h-6.3zM38.4 23c-.9 0-2 0-3.3.3a32 32 0 0 1-5.1-7.5c1.3-5.7.6-6.5.4-6.8-.4-.4-.8-1-1.3-1a5 5 0 0 0-1 0c-.6.3-1 .7-1.2 1.3-.7 1.6.3 4.5 1.3 6.6-.8 3.4-2.3 7.5-3.8 10.8-3.8 1.7-5.8 3.4-6 5 0 .6.1 1.5 1.1 2.3.3.2.7.3 1 .3.9 0 1.8-.6 2.8-2l2.4-4.3a48 48 0 0 1 8.8-2.9c1.6 1.6 3 2.3 4.2 2.3 1 0 1.7-.4 2.2-1.2.6-.8.7-1.5.4-2.1-.4-.8-1.3-1.1-2.9-1.1zm-17.9 9.6c-.4-.3-.4-.6-.4-.7 0-.5 1-1.5 3-2.7-1.5 3-2.4 3.4-2.6 3.4zm8.2-22.9s1 1.1.1 3.2c-1.4-1.4-.2-3.2 0-3.2zm-2 16c1-2.4 2-5 2.6-7.5 1.2 2 2.5 4 3.9 5.5-2.2.5-4.4 1.2-6.5 2zm12.9-.4c-.3.4-1 .4-1.2.4-.6 0-.8-.3-1.6-1h1.8l1.2.1c0 .1 0 .3-.2.5z"/></svg>
