<svg xmlns="http://www.w3.org/2000/svg" viewBox="0 0 442.833 442.833"><path d="M361 18.2H81.9C36.7 18.2 0 54.9 0 100v170c0 45 36.7 81.8 81.8 81.8h192.8l69.7 69.7a10.9 10.9 0 0 0 18.6-7.8v-62c44.2-1 80-37.2 80-81.7V100c0-45.1-36.7-81.8-81.8-81.8zM421 270a60 60 0 0 1-60 60h-9c-6 0-11 4.8-11 10.9v46.5l-54.2-54.2c-2-2-4.8-3.2-7.7-3.2H81.8c-33 0-60-27-60-60V100a60 60 0 0 1 60-60H361a60 60 0 0 1 60 60v170z"/><path d="M119.2 161.2a24.5 24.5 0 1 0 0 49.1 24.5 24.5 0 0 0 0-49zM221.4 161.2a24.5 24.5 0 1 0 0 49.1 24.5 24.5 0 0 0 0-49zM323.6 161.2a24.5 24.5 0 1 0 0 49.1 24.5 24.5 0 0 0 0-49z"/></svg>
